<svg xmlns="http://www.w3.org/2000/svg" width="1024" height="1024" viewBox="0 0 1024 1024" version="1.1"><path d="M 630.360 226 C 630.360 231.225, 630.529 233.363, 630.735 230.750 C 630.941 228.137, 630.941 223.863, 630.735 221.250 C 630.529 218.637, 630.360 220.775, 630.360 226 M 722.750 329.723 C 724.538 329.945, 727.462 329.945, 729.250 329.723 C 731.038 329.502, 729.575 329.320, 726 329.320 C 722.425 329.320, 720.962 329.502, 722.750 329.723 M 849.378 521 C 849.378 527.325, 849.541 529.913, 849.739 526.750 C 849.937 523.587, 849.937 518.413, 849.739 515.250 C 849.541 512.087, 849.378 514.675, 849.378 521 M 174.370 522 C 174.370 527.775, 174.535 530.138, 174.737 527.250 C 174.939 524.362, 174.939 519.638, 174.737 516.750 C 174.535 513.862, 174.370 516.225, 174.370 522 M 683.336 702 C 683.336 706.125, 683.513 707.813, 683.728 705.750 C 683.944 703.688, 683.944 700.313, 683.728 698.250 C 683.513 696.188, 683.336 697.875, 683.336 702" stroke="none" fill="#37464d" fill-rule="evenodd"/><path d="M 715.381 157.977 C 702.979 161.228, 694.508 166.216, 684.992 175.869 C 679.883 181.052, 675.228 186.897, 673.340 190.500 C 662.228 211.703, 662.508 238.014, 674.053 257.601 C 679.163 266.269, 691.130 277.826, 699.545 282.217 C 729.487 297.842, 766.392 290.208, 785.975 264.339 C 796.066 251.010, 800.335 238.688, 800.297 223 C 800.269 211.251, 798.280 203.047, 792.811 192.121 C 788.159 182.826, 779.136 172.896, 769.814 166.810 C 754.681 156.931, 732.869 153.392, 715.381 157.977 M 487 192.099 C 431.472 197.543, 380.027 214.189, 334 241.607 C 286.613 269.834, 248.840 307.431, 219.832 355.242 C 187.618 408.335, 173.735 463.318, 175.326 531.500 C 176.086 564.098, 178.266 580.914, 185.567 610.500 C 193.383 642.175, 198.195 653, 204.461 653 C 207.432 653, 221.851 645.794, 225.328 642.572 C 228.851 639.307, 228.757 636.962, 224.477 621.350 C 221.250 609.579, 217.766 593.781, 215.026 578.500 C 212.229 562.905, 211.019 545.240, 211.010 519.883 L 211 493.265 223.750 492.775 C 238.006 492.226, 246.683 489.903, 259.363 483.240 C 276.131 474.429, 288.071 459.584, 294.141 440 C 297.171 430.226, 297.459 410.091, 294.712 400.072 C 290.708 385.465, 281.252 371.323, 269.107 361.776 L 261.223 355.579 266.927 349.039 C 270.065 345.443, 274.100 340.591, 275.894 338.257 C 279.720 333.282, 279.056 333.092, 290.798 342.540 C 303.631 352.867, 313.834 366.372, 321.639 383.360 L 324.791 390.221 343.146 401.749 C 353.241 408.090, 367.125 416.758, 374 421.013 C 380.875 425.267, 392.593 432.554, 400.040 437.207 C 411.311 444.249, 413.890 445.485, 415.428 444.583 C 416.443 443.988, 432.175 433.645, 450.387 421.600 C 468.599 409.555, 492.490 393.805, 503.478 386.600 C 514.465 379.395, 536.141 365.175, 551.645 355 C 567.149 344.825, 587.410 331.569, 596.667 325.541 C 605.925 319.514, 622.160 308.884, 632.744 301.919 L 651.988 289.255 650.156 286.877 C 639.149 272.597, 631.376 249.840, 630.388 229 C 630.088 222.675, 629.367 216.245, 628.784 214.712 C 626.829 209.562, 617.772 205.955, 590.852 199.603 C 561.176 192.600, 515.530 189.302, 487 192.099 M 677.289 334.259 C 671.485 347.330, 640.353 415.950, 634.509 428.553 C 631.600 434.827, 626.578 445.921, 620.500 459.500 C 615.305 471.109, 596.160 513.098, 583.796 540 C 578.376 551.793, 578.251 550.594, 585.275 554.134 C 588.699 555.860, 595.241 559.732, 599.812 562.740 C 604.384 565.748, 608.260 568.049, 608.426 567.854 C 608.591 567.659, 610.408 563.675, 612.463 559 C 614.518 554.325, 618.149 546.225, 620.531 541 C 622.914 535.775, 637.337 504.050, 652.584 470.500 C 667.830 436.950, 684.325 400.725, 689.237 390 C 694.150 379.275, 699.958 366.278, 702.142 361.118 C 704.327 355.958, 708.366 347.248, 711.119 341.763 C 713.871 336.278, 715.983 331.673, 715.812 331.531 C 715.640 331.388, 712.350 330.259, 708.500 329.021 C 704.650 327.784, 697.831 324.798, 693.346 322.386 C 688.861 319.974, 685.036 318.004, 684.846 318.009 C 684.656 318.013, 681.255 325.326, 677.289 334.259 M 745.500 327.630 C 742.750 328.390, 735.667 329.122, 729.760 329.256 L 719.021 329.500 719.009 426 L 718.997 522.500 713.168 524.213 C 692.817 530.193, 680.061 550.244, 683.074 571.521 C 686.525 595.890, 708.993 612.324, 733.185 608.175 C 752.056 604.939, 765.314 592.138, 769.642 572.976 C 772.514 560.257, 768.266 546.277, 758.054 534.840 L 753 529.179 753 427.590 C 753 346.918, 752.743 326.026, 751.750 326.124 C 751.063 326.192, 748.250 326.870, 745.500 327.630 M 791.430 355.792 C 785.396 359.150, 778.779 364.526, 777.401 367.191 C 774.969 371.895, 775.800 375.055, 783.922 391.986 C 801.678 429, 811.220 467.814, 812.813 509.500 C 813.841 536.429, 811.648 564.436, 806.991 583.833 C 802.250 603.580, 792.102 633.724, 790.337 633.298 C 789.877 633.187, 786.985 632.196, 783.911 631.096 C 762.222 623.334, 736.140 626.534, 715.037 639.545 L 707.894 643.949 683.470 627.724 C 670.036 618.801, 659.035 611.153, 659.023 610.729 C 659.010 610.304, 660.125 609.445, 661.500 608.818 C 662.875 608.192, 664 607.280, 664 606.793 C 664 606.306, 662.035 602.440, 659.633 598.203 C 655.832 591.500, 652.483 583.918, 650.562 577.666 C 649.923 575.587, 650.574 575.164, 625.500 593.917 C 617.800 599.676, 610.825 604.386, 610 604.384 C 607.819 604.378, 492.761 532.339, 385 463.510 C 377.025 458.416, 365.100 450.893, 358.500 446.793 C 351.900 442.693, 342.099 436.501, 336.719 433.033 C 331.340 429.566, 326.822 426.902, 326.680 427.114 C 326.537 427.326, 325.649 431.398, 324.704 436.161 C 323.760 440.925, 321.654 448.101, 320.023 452.107 C 318.393 456.114, 317.158 459.464, 317.279 459.553 C 317.401 459.641, 324.475 464.078, 333 469.413 C 341.525 474.748, 360.875 487.016, 376 496.676 C 391.125 506.335, 421.500 525.595, 443.500 539.474 C 465.500 553.353, 490.475 569.124, 499 574.520 C 513.788 583.880, 520.742 588.267, 575 622.471 C 587.925 630.619, 601.728 639.461, 605.674 642.121 C 609.619 644.782, 612.994 646.581, 613.174 646.119 C 613.353 645.658, 617.407 642.496, 622.182 639.092 L 630.864 632.903 656.182 649.566 C 670.107 658.730, 683.343 667.369, 685.596 668.764 L 689.692 671.300 687.203 678.900 C 683.842 689.157, 683.012 707.462, 685.417 718.272 C 687.287 726.675, 692.449 738.102, 697.640 745.327 C 699.564 748.006, 700.927 750.749, 700.668 751.423 C 700.409 752.097, 695.091 756.502, 688.849 761.211 C 651.122 789.675, 607.978 806.464, 549 815.630 C 534.813 817.834, 494.994 818.163, 479 816.207 C 442.584 811.753, 407.172 801.535, 375 786.196 C 358.021 778.100, 356.060 777.530, 351.608 779.391 C 347.315 781.184, 344.646 785.255, 341.895 794.202 C 339.705 801.326, 339.886 803.314, 343.102 807.403 C 348.933 814.816, 390.713 832.731, 420.205 840.465 C 485.188 857.507, 545.952 856.828, 610 838.347 C 690.131 815.225, 758.711 764.187, 799.262 697.497 C 824.701 655.659, 839.229 614.125, 846.658 562 C 849.187 544.255, 849.214 496.612, 846.704 479.500 C 842.338 449.720, 834.858 421.013, 825.172 396.859 C 821.312 387.234, 809.885 364.052, 807.012 360.016 C 802.905 354.249, 797.054 352.663, 791.430 355.792 M 298.828 487.945 C 289.515 498.585, 270.596 510.699, 258.168 513.978 C 254.227 515.018, 253.957 515.285, 255.168 516.934 C 255.901 517.931, 258.423 521.495, 260.774 524.854 L 265.048 530.960 262.064 545.730 C 260.423 553.854, 257.692 568.150, 255.994 577.500 C 248.009 621.467, 245.808 633.355, 243.587 644.500 C 242.272 651.100, 240.968 658.111, 240.689 660.080 L 240.181 663.660 248.340 664.771 C 252.828 665.381, 260.154 666.948, 264.620 668.253 L 272.740 670.625 274.323 663.062 C 275.673 656.612, 279.937 634.521, 285.531 605 C 286.312 600.875, 288.735 588.275, 290.913 577 C 293.092 565.725, 295.837 551.100, 297.014 544.500 C 298.191 537.900, 299.571 532.070, 300.082 531.544 C 300.594 531.018, 303.597 529.630, 306.756 528.458 C 312.081 526.484, 312.600 526.007, 313.876 521.914 C 314.633 519.486, 317.050 512.643, 319.248 506.706 C 321.446 500.769, 323.077 495.793, 322.872 495.649 C 322.668 495.504, 318.552 492.599, 313.726 489.193 C 308.900 485.787, 304.548 483, 304.054 483 C 303.559 483, 301.208 485.225, 298.828 487.945 M 314.599 612.285 C 314.367 613.503, 313.664 617.650, 313.036 621.500 C 312.409 625.350, 310.988 631.581, 309.877 635.346 C 308.767 639.111, 308.003 642.308, 308.179 642.451 C 308.356 642.593, 312.775 643.426, 318 644.300 C 323.225 645.175, 354.725 650.670, 388 656.511 C 421.275 662.353, 456.736 668.565, 466.801 670.316 C 476.867 672.067, 485.127 673.950, 485.157 674.500 C 485.212 675.487, 471.677 679.973, 436.500 690.629 C 419.314 695.835, 412.762 697.882, 368 712.038 C 357.275 715.429, 344.900 719.334, 340.500 720.715 C 336.100 722.096, 332.127 723.570, 331.672 723.991 C 331.216 724.412, 331.941 726.949, 333.283 729.628 C 336.323 735.699, 339.566 745.192, 340.459 750.638 L 341.138 754.776 351.819 751.383 C 357.694 749.517, 380.725 742.330, 403 735.413 C 425.275 728.495, 454.300 719.455, 467.500 715.323 C 480.700 711.192, 497.350 706.022, 504.500 703.835 C 511.650 701.648, 526.632 696.929, 537.793 693.349 C 554.677 687.933, 558.793 686.946, 562.293 687.479 C 570.019 688.656, 601.234 694.109, 625.824 698.579 C 639.202 701.010, 650.732 703, 651.445 703 C 652.338 703, 652.953 700.585, 653.419 695.250 C 653.791 690.987, 654.897 683.808, 655.877 679.296 L 657.658 671.092 652.579 669.999 C 649.786 669.398, 638.500 667.360, 627.500 665.471 C 587.026 658.519, 571.138 655.757, 555.500 652.954 C 531.422 648.637, 455.931 635.316, 416.500 628.425 C 405.500 626.503, 387.725 623.337, 377 621.390 C 366.275 619.443, 348.500 616.307, 337.500 614.421 C 326.500 612.535, 316.942 610.785, 316.260 610.531 C 315.567 610.274, 314.834 611.047, 314.599 612.285 M 227.500 706.600 C 223.650 707.390, 216.675 709.918, 212 712.218 C 205.236 715.545, 201.754 718.145, 194.951 724.950 C 180.108 739.794, 174.395 754.760, 175.273 776.500 C 176.029 795.221, 181.243 807, 195.033 821.139 C 208.287 834.728, 224.527 840.727, 245.397 839.742 C 254.555 839.311, 258.025 838.661, 265.204 836.031 C 297.386 824.246, 315.602 790.032, 307.814 756 C 307.247 753.525, 304.750 747.240, 302.264 742.034 C 298.475 734.096, 296.433 731.270, 289.619 724.534 C 272.872 707.976, 251.232 701.728, 227.500 706.600" stroke="none" fill="#1b2c3b" fill-rule="evenodd"/></svg>