<svg xmlns="http://www.w3.org/2000/svg" width="1024" height="1024" viewBox="0 0 1024 1024" version="1.1"><path d="M 717.500 155.970 C 693.983 161.028, 674.644 178.596, 667.405 201.479 C 662.109 218.217, 663.325 238.834, 670.475 253.500 C 682.126 277.401, 704.973 291.461, 732 291.363 C 744.693 291.317, 753.450 289.310, 764.567 283.898 C 781.635 275.588, 795.368 258.228, 800.081 239 C 801.945 231.397, 801.730 214.030, 799.672 206 C 794.022 183.957, 776.707 165.242, 755.578 158.340 C 748.859 156.145, 745.313 155.651, 734.500 155.405 C 727.350 155.242, 719.700 155.496, 717.500 155.970 M 481.500 191.492 C 423.949 197.489, 369.323 216.682, 321 247.885 C 253.675 291.357, 201.619 363.566, 183.408 438.743 C 176.022 469.232, 173.504 495.010, 174.305 531.918 C 175.154 570.992, 179.721 599.200, 191.018 635.140 C 197.364 655.328, 200.880 657.448, 215.712 650.024 C 226.554 644.597, 229 642.190, 229 636.943 C 229 634.659, 227.221 626.200, 225.047 618.145 C 221.060 603.377, 217.530 586.320, 214.463 567 C 213.287 559.593, 212.643 547.293, 212.277 525.250 L 211.758 494 222.767 494 C 231.553 494, 235.524 493.493, 242.434 491.491 C 265.935 484.681, 280.719 472.693, 290.522 452.500 C 296.403 440.386, 298.400 430.157, 297.726 415.604 C 296.941 398.672, 293.451 388.256, 284.164 375.134 C 279.999 369.248, 265.884 356, 263.778 356 C 263.274 356, 265.706 352.734, 269.181 348.743 C 272.656 344.752, 276.418 340.219, 277.541 338.670 L 279.582 335.854 285.807 340.437 C 299.489 350.509, 310.665 364.271, 319.154 381.500 L 324.081 391.500 339.790 401.358 C 348.431 406.780, 361.350 414.845, 368.500 419.282 C 375.650 423.718, 387.350 431.023, 394.500 435.516 C 401.650 440.009, 408.922 444.503, 410.660 445.504 L 413.819 447.324 419.160 443.927 C 422.097 442.059, 446.100 426.282, 472.500 408.867 C 560.404 350.879, 570.379 344.321, 589.500 331.941 C 610.556 318.308, 652.229 290.973, 652.981 290.301 C 653.489 289.847, 652.852 288.682, 645.982 277.507 C 637.718 264.065, 632.368 245.428, 631.340 226.500 C 630.611 213.097, 629.759 210.938, 624.049 208.025 C 611.715 201.733, 572.808 193.731, 541.500 191.049 C 525.801 189.704, 496.593 189.919, 481.500 191.492 M 682.423 319.250 C 682.031 320.488, 673.403 339.725, 663.248 362 C 653.093 384.275, 638.255 416.900, 630.274 434.500 C 622.293 452.100, 612.383 473.925, 608.251 483 C 604.119 492.075, 597.472 506.700, 593.481 515.500 C 589.489 524.300, 584.373 535.482, 582.112 540.350 C 579.850 545.217, 578 549.823, 578 550.585 C 578 551.347, 580.622 553.295, 583.827 554.913 C 587.032 556.531, 593.401 560.362, 597.980 563.427 C 602.559 566.492, 607.044 569, 607.946 569 C 609.136 569, 613.946 559.311, 625.447 533.750 C 634.170 514.362, 644.789 490.850, 649.044 481.500 C 666.312 443.557, 678.279 417.305, 688.473 395 C 694.381 382.075, 701.472 366.325, 704.231 360 C 706.991 353.675, 710.993 345.022, 713.124 340.772 C 715.256 336.522, 717 332.403, 717 331.620 C 717 330.727, 714.424 329.412, 710.098 328.098 C 706.301 326.945, 699.356 323.976, 694.663 321.501 C 689.970 319.025, 685.456 317, 684.632 317 C 683.809 317, 682.814 318.012, 682.423 319.250 M 744 326.597 C 740.975 327.354, 733.888 328.025, 728.250 328.089 L 718 328.204 717.999 424.852 L 717.997 521.500 712.168 523.213 C 699.756 526.860, 688.523 537.236, 684.253 549 C 674.732 575.228, 689.961 604.106, 715.886 608.986 C 731.809 611.983, 746.805 608.053, 757.342 598.121 C 775.743 580.779, 776.535 552.834, 759.164 533.860 L 754 528.220 754 426.610 L 754 325 751.750 325.111 C 750.513 325.171, 747.025 325.840, 744 326.597 M 789.286 355.433 C 782.648 359.229, 778.005 363.090, 776.441 366.114 C 773.616 371.577, 774.580 375.592, 782.891 392.986 C 792.633 413.373, 797.868 428.216, 803.531 451.500 C 809.348 475.417, 811.098 489.131, 811.699 515.500 C 812.460 548.957, 809.430 572.696, 800.654 602 C 797.603 612.189, 791.701 629.056, 790.516 630.974 C 790.277 631.360, 786.801 630.549, 782.791 629.172 C 776.257 626.927, 773.838 626.658, 759.500 626.584 C 745.692 626.511, 742.431 626.810, 735.701 628.760 C 727.705 631.078, 718.553 635.282, 711.853 639.716 L 708.070 642.219 684.359 626.480 C 660.750 610.809, 660.659 610.735, 663.324 609.338 C 666.496 607.676, 666.624 606.691, 664.125 603.154 C 661.214 599.034, 654.374 584.983, 652.925 580.146 C 652.208 577.751, 651.039 575.569, 650.328 575.296 C 648.964 574.772, 643.337 578.584, 623.121 593.727 C 616.313 598.827, 610.332 603, 609.830 603 C 609.328 603, 601.849 598.566, 593.209 593.146 C 584.569 587.726, 562.425 573.851, 544 562.312 C 501.859 535.920, 477.030 520.223, 403 473.170 C 393.925 467.402, 377.050 456.754, 365.500 449.508 C 353.950 442.263, 340.900 434.009, 336.500 431.167 C 332.100 428.325, 327.815 426, 326.978 426 C 325.892 426, 325.089 427.934, 324.176 432.750 C 323.473 436.462, 321.550 443.325, 319.903 448 C 315.305 461.055, 315.331 460.603, 319.076 462.539 C 321.830 463.963, 341.227 476.149, 354 484.480 C 361.207 489.180, 413.235 522.152, 432.500 534.227 C 443.500 541.122, 460.150 551.607, 469.500 557.528 C 478.850 563.448, 490.550 570.848, 495.500 573.972 C 500.450 577.096, 515.750 586.781, 529.500 595.493 C 543.250 604.205, 564.850 617.846, 577.500 625.806 C 590.150 633.766, 603.063 642.017, 606.195 644.140 C 612.701 648.550, 612.616 648.527, 614.697 646.445 C 615.552 645.591, 619.569 642.653, 623.623 639.917 L 630.995 634.943 641.747 641.809 C 647.661 645.586, 660.417 653.926, 670.092 660.342 L 687.685 672.009 685.273 680.754 C 682.183 691.958, 681.760 710.055, 684.357 720 C 686.330 727.560, 691.581 739.078, 695.948 745.424 C 697.627 747.864, 699 750.229, 699 750.680 C 699 752.436, 679.143 767.081, 666 775.018 C 634.060 794.307, 595.265 807.236, 547 814.678 C 532.963 816.842, 497.123 817.106, 480.500 815.167 C 443.426 810.843, 407.928 800.472, 373.500 783.904 C 354.242 774.637, 348.642 775.233, 343.006 787.152 C 337.493 798.809, 338.161 806.013, 345.249 811.340 C 352.232 816.589, 378.123 828.276, 397.784 835.056 C 449.718 852.964, 511.251 858.532, 562.474 849.958 C 595.737 844.391, 617.103 838.652, 643 828.331 C 677.306 814.658, 701.858 800.384, 731 777.170 C 792.976 727.803, 833.783 654.721, 846.680 570 C 849.755 549.801, 850.985 509.176, 849.078 490.809 C 845.617 457.460, 837.595 423.972, 826.541 396.722 C 822.304 386.278, 812.450 365.674, 809.323 360.720 C 804.476 353.041, 796.945 351.054, 789.286 355.433 M 295.553 489.090 C 285.445 499.435, 273.945 506.845, 260.750 511.516 C 256.488 513.025, 253 514.841, 253 515.553 C 253 516.264, 254.047 518.119, 255.326 519.673 C 256.605 521.228, 259.040 524.548, 260.737 527.052 L 263.824 531.604 262.452 537.552 C 261.029 543.720, 254.315 579.503, 248.389 612.500 C 246.512 622.950, 243.884 636.900, 242.550 643.500 C 241.215 650.100, 239.830 657.564, 239.473 660.086 L 238.822 664.672 247.262 665.853 C 251.904 666.502, 259.643 668.176, 264.461 669.573 C 269.279 670.970, 273.426 671.908, 273.676 671.658 C 274.132 671.202, 287.033 604.863, 295.572 559.065 C 298.077 545.626, 300.507 533.921, 300.971 533.054 C 301.435 532.186, 304.339 530.619, 307.425 529.570 C 313.791 527.406, 314.478 526.771, 315.333 522.254 C 315.672 520.469, 317.760 514.201, 319.974 508.325 C 322.188 502.449, 323.980 496.935, 323.956 496.071 C 323.904 494.182, 306.886 482, 304.300 482 C 303.300 482, 299.364 485.190, 295.553 489.090 M 313.702 609.632 C 313.316 610.018, 313 612.028, 313 614.099 C 313 616.170, 311.650 623.101, 310 629.500 C 308.350 635.899, 307 641.681, 307 642.348 C 307 643.594, 316.102 645.391, 361.500 653.110 C 374.150 655.261, 394.850 658.849, 407.500 661.083 C 434.112 665.782, 473.547 672.701, 479.791 673.767 C 483.890 674.467, 482.946 674.851, 458.791 682.320 C 354.268 714.637, 329 722.743, 329 723.957 C 329 724.392, 330.134 726.776, 331.519 729.256 C 334.466 734.529, 338.467 745.888, 339.472 751.835 C 339.859 754.126, 340.398 756, 340.669 756 C 341.422 756, 360.043 750.280, 397 738.696 C 415.425 732.921, 438.825 725.647, 449 722.533 C 459.175 719.419, 472.225 715.355, 478 713.502 C 483.775 711.648, 498.850 706.905, 511.500 702.960 C 524.150 699.015, 539.900 694.089, 546.500 692.014 C 560.528 687.603, 556.235 687.358, 599 695.017 C 643.584 703.002, 649.356 703.986, 651.621 703.993 C 653.524 703.999, 653.812 703.257, 654.431 696.750 C 654.811 692.763, 655.994 685.263, 657.062 680.085 C 658.129 674.906, 658.798 670.464, 658.547 670.214 C 657.790 669.456, 639.878 666.164, 597.812 659.050 C 568.051 654.017, 546.630 650.232, 520.500 645.389 C 512.800 643.962, 497.725 641.311, 487 639.499 C 476.275 637.686, 456.925 634.320, 444 632.018 C 431.075 629.716, 410.600 626.105, 398.500 623.995 C 386.400 621.884, 370.087 618.997, 362.250 617.579 C 354.413 616.160, 341.587 613.870, 333.750 612.488 C 325.913 611.107, 318.353 609.741, 316.952 609.453 C 315.550 609.165, 314.088 609.246, 313.702 609.632 M 226.189 705.529 C 207.034 709.688, 190.226 722.971, 181.038 741.213 C 175.366 752.473, 173.666 761.367, 174.232 776.820 C 174.745 790.856, 176.681 797.797, 183.123 808.699 C 188.481 817.768, 200.269 829.133, 208.709 833.367 C 221.235 839.651, 229.378 841.328, 244.476 840.730 C 264.516 839.937, 276.770 834.979, 289.531 822.500 C 297.782 814.432, 303.723 804.904, 307.614 793.500 C 309.962 786.619, 310.355 783.821, 310.422 773.500 C 310.516 759.114, 309.320 753.673, 303.278 741 C 299.469 733.010, 297.448 730.211, 290.559 723.390 C 281.117 714.040, 270.199 707.947, 258.500 705.499 C 249.853 703.690, 234.595 703.704, 226.189 705.529" stroke="none" fill="#fffcfc" fill-rule="evenodd"/><path d="" stroke="none" fill="#fcfcfc" fill-rule="evenodd"/></svg>